<?xml version="1.0" encoding="utf-8"?>
<!-- Generator: Adobe Illustrator 25.1.0, SVG Export Plug-In . SVG Version: 6.00 Build 0)  -->
<svg version="1.1" id="Слой_1" xmlns="http://www.w3.org/2000/svg" xmlns:xlink="http://www.w3.org/1999/xlink" x="0px" y="0px"
	 viewBox="0 0 69.8 72.9" style="enable-background:new 0 0 69.8 72.9;" xml:space="preserve">
<style type="text/css">
	.st0{fill:url(#SVGID_1_);}
	.st1{fill:url(#SVGID_2_);}
	.st2{fill:url(#SVGID_3_);}
	.st3{fill:url(#SVGID_4_);}
</style>
<g id="Слой_2_1_">
	<g id="Layer_1">
		
			<linearGradient id="SVGID_1_" gradientUnits="userSpaceOnUse" x1="-2.930826e-02" y1="37.5307" x2="69.8084" y2="37.5307" gradientTransform="matrix(1 0 0 -1 0 74)">
			<stop  offset="0" style="stop-color:#3CA747"/>
			<stop  offset="0.16" style="stop-color:#43AA4A"/>
			<stop  offset="0.46" style="stop-color:#4DBC50"/>
			<stop  offset="0.86" style="stop-color:#87D887"/>
			<stop  offset="1" style="stop-color:#A3E2A3"/>
		</linearGradient>
		<path class="st0" d="M67.6,32.7L40.2,5.3c-2.9-2.9-7.7-2.9-10.6,0l-0.5,0.5l-3.5-3.6c-3-3.1-6.9-3-8.6,0.3l-15.7,31
			c-0.1,0.2-0.4,0.7-0.4,0.9l0,0c-1.7,2.9-1.2,6.6,1.2,9l27.4,27.3c2.9,2.9,7.7,2.9,10.6,0l27.4-27.4C70.5,40.4,70.5,35.7,67.6,32.7
			z M20.6,6.1c0.2-0.5,0.8-0.9,1.4-0.9c0.7,0,1.3,0.3,1.7,0.8l2.6,2.6l0,0L11.9,23L20.6,6.1z M64.2,40L36.8,67.4
			c-1.1,1.1-2.8,1.1-3.8,0L5.6,40c-1.1-1.1-1.1-2.8,0-3.8L33,8.7c1.1-1.1,2.8-1.1,3.8,0l27.4,27.4C65.3,37.2,65.3,38.9,64.2,40
			C64.3,40,64.3,40,64.2,40z"/>
		
			<linearGradient id="SVGID_2_" gradientUnits="userSpaceOnUse" x1="29.57" y1="42.67" x2="53.6659" y2="42.67" gradientTransform="matrix(1 0 0 -1 0 74)">
			<stop  offset="0" style="stop-color:#3CA747"/>
			<stop  offset="0.16" style="stop-color:#43AA4A"/>
			<stop  offset="0.46" style="stop-color:#4DBC50"/>
			<stop  offset="0.86" style="stop-color:#87D887"/>
			<stop  offset="1" style="stop-color:#A3E2A3"/>
		</linearGradient>
		<path class="st1" d="M33.7,20c-0.9-0.9-2.4-0.9-3.4,0s-0.9,2.4,0,3.4l19.3,19.3c0.9,0.9,2.4,0.9,3.4,0c0,0,0,0,0,0
			c0.9-0.9,0.9-2.4,0-3.4L33.7,20z"/>
		
			<linearGradient id="SVGID_3_" gradientUnits="userSpaceOnUse" x1="22.86" y1="35.965" x2="46.95" y2="35.965" gradientTransform="matrix(1 0 0 -1 0 74)">
			<stop  offset="0" style="stop-color:#3CA747"/>
			<stop  offset="0.16" style="stop-color:#43AA4A"/>
			<stop  offset="0.46" style="stop-color:#4DBC50"/>
			<stop  offset="0.86" style="stop-color:#87D887"/>
			<stop  offset="1" style="stop-color:#A3E2A3"/>
		</linearGradient>
		<path class="st2" d="M26.9,26.7c-0.9-0.9-2.4-0.9-3.4,0s-0.9,2.4,0,3.4l0,0l19.3,19.3c0.9,0.9,2.4,0.9,3.4,0s0.9-2.4,0-3.4l0,0
			L26.9,26.7z"/>
		
			<linearGradient id="SVGID_4_" gradientUnits="userSpaceOnUse" x1="16.14" y1="29.25" x2="40.23" y2="29.25" gradientTransform="matrix(1 0 0 -1 0 74)">
			<stop  offset="0" style="stop-color:#3CA747"/>
			<stop  offset="0.16" style="stop-color:#4DBC50"/>
			<stop  offset="0.46" style="stop-color:#4DBC50"/>
			<stop  offset="0.86" style="stop-color:#87D887"/>
			<stop  offset="1" style="stop-color:#A3E2A3"/>
		</linearGradient>
		<path class="st3" d="M20.2,33.4c-0.9-0.9-2.4-0.9-3.4,0c-0.9,0.9-0.9,2.4,0,3.4l19.3,19.3c0.9,0.9,2.4,0.9,3.4,0s0.9-2.4,0-3.4
			L20.2,33.4z"/>
	</g>
</g>
</svg>
