<svg xmlns="http://www.w3.org/2000/svg" viewBox="0 0 431 512"><defs><style>.a{fill:#3ca747;}</style></defs><path class="a" d="M271,512H80A80.09,80.09,0,0,1,0,432V161A80.09,80.09,0,0,1,80,81H271a80.09,80.09,0,0,1,80,80V432A80.09,80.09,0,0,1,271,512ZM80,121a40.05,40.05,0,0,0-40,40V432a40.05,40.05,0,0,0,40,40H271a40.05,40.05,0,0,0,40-40V161a40.05,40.05,0,0,0-40-40ZM431,382V80A80.09,80.09,0,0,0,351,0H129a20,20,0,0,0,0,40H351a40.05,40.05,0,0,1,40,40V382a20,20,0,0,0,40,0Z" transform="translate(0 0)"/></svg>