<svg xmlns="http://www.w3.org/2000/svg" viewBox="0 0 409.6 512"><defs><style>.a{fill:#009ed9;}</style></defs><path class="a" d="M403.76,229l-22.49-25.6a17.08,17.08,0,0,0-24.06-1.57l-67.08,58.78V17.07A17.07,17.07,0,0,0,273.07,0H238.93a17.07,17.07,0,0,0-17.06,17.07V260.61l-67.08-58.78a17.09,17.09,0,0,0-24.06,1.57L108.24,229a17.08,17.08,0,0,0,1.57,24.13l135,118.13a17.06,17.06,0,0,0,22.49,0L402.19,253.1A17,17,0,0,0,403.76,229Z" transform="translate(-51.2 0)"/><path class="a" d="M443.73,443.73H68.27A17.08,17.08,0,0,0,51.2,460.8v34.13A17.08,17.08,0,0,0,68.27,512H443.73a17.08,17.08,0,0,0,17.07-17.07V460.8A17.08,17.08,0,0,0,443.73,443.73Z" transform="translate(-51.2 0)"/></svg>